<svg version="1.1" xmlns="http://www.w3.org/2000/svg" xmlns:xlink="http://www.w3.org/1999/xlink" width="105.55275" height="36.25937" viewBox="0,0,105.55275,36.25937"><g transform="translate(-186.54009,-161.73618)"><g data-paper-data="{&quot;isPaintingLayer&quot;:true}" stroke-miterlimit="10" stroke-dasharray="" stroke-dashoffset="0" style="mix-blend-mode: normal"><g fill-rule="evenodd"><path d="" fill="#ffab19" stroke="#001026" stroke-width="1.2" stroke-linecap="round" stroke-linejoin="round"/><path d="" fill="#ffffff" stroke="none" stroke-width="1" stroke-linecap="butt" stroke-linejoin="miter"/></g><path d="" fill="#ffab19" fill-rule="evenodd" stroke="#001026" stroke-width="1.2" stroke-linecap="round" stroke-linejoin="round"/><path d="" fill="#ffab19" fill-rule="evenodd" stroke="#001026" stroke-width="1.2" stroke-linecap="round" stroke-linejoin="round"/><g fill-rule="evenodd"><path d="" fill="#ffab19" stroke="#001026" stroke-width="1.2" stroke-linecap="round" stroke-linejoin="round"/><path d="" fill="#ffffff" stroke="none" stroke-width="1" stroke-linecap="butt" stroke-linejoin="miter"/></g><path d="" fill="#ffab19" fill-rule="evenodd" stroke="#001026" stroke-width="1.2" stroke-linecap="round" stroke-linejoin="round"/><g fill-rule="evenodd"><path d="" fill="#ffab19" stroke="#001026" stroke-width="1.2" stroke-linecap="butt" stroke-linejoin="miter"/><path d="" fill="#ffffff" stroke="none" stroke-width="1" stroke-linecap="butt" stroke-linejoin="miter"/><path d="" fill="#ffffff" stroke="#001026" stroke-width="1.2" stroke-linecap="round" stroke-linejoin="round"/><path d="" fill="none" stroke="#001026" stroke-width="1.2" stroke-linecap="round" stroke-linejoin="round"/><path d="" fill="none" stroke="#001026" stroke-width="1.2" stroke-linecap="round" stroke-linejoin="round"/><path d="" fill="#001026" stroke="#001026" stroke-width="1.2" stroke-linecap="round" stroke-linejoin="round"/><path d="" fill="none" stroke="#001026" stroke-width="1.2" stroke-linecap="round" stroke-linejoin="round"/><path d="" fill="none" stroke="#001026" stroke-width="1.2" stroke-linecap="round" stroke-linejoin="round"/><g><path d="" fill="#ffffff" stroke="#001026" stroke-width="1.2" stroke-linecap="round" stroke-linejoin="round"/><path d="" fill="#001026" stroke="none" stroke-width="1" stroke-linecap="butt" stroke-linejoin="miter"/></g><g><path d="" fill="#ffffff" stroke="#001026" stroke-width="1.2" stroke-linecap="round" stroke-linejoin="round"/><path d="" fill="#001026" stroke="none" stroke-width="1" stroke-linecap="butt" stroke-linejoin="miter"/></g></g><g fill-rule="nonzero" stroke-linejoin="miter"><path d="M287.02401,196.24555c0,0 -1.95483,-3.55188 -6.63715,-4.15083c-4.68232,-0.59895 -7.59748,2.99221 -11.88773,1.78115c-4.29025,-1.21106 -8.56741,-7.55522 -8.56741,-7.55522" fill="none" stroke="#1aa700" stroke-width="3.5" stroke-linecap="round"/><path d="M290.34284,175.15016c0,0 -10.36548,6.20125 -15.99634,7.23851c-5.63086,1.03726 -14.58307,-1.60551 -14.58307,-1.60551" fill="none" stroke="#1aa700" stroke-width="3.5" stroke-linecap="round"/><path d="M260.60773,177.68694c0,0 5.46839,-8.59964 11.03053,-11.16425c5.56218,-2.56461 5.61145,2.38269 9.59067,1.65619c3.97926,-0.72654 7.04049,-4.6927 7.04049,-4.6927" fill="none" stroke="#1aa700" stroke-width="3.5" stroke-linecap="round"/><path d="M202.54009,180.41325h44.51981" fill="none" stroke="#1aa700" stroke-width="32" stroke-linecap="round"/><path d="M235.52558,179.13559h-33.7902" fill="none" stroke="#1cb500" stroke-width="27.5" stroke-linecap="round"/><path d="M237.94044,187.66187c0,-2.37029 1.8615,-4.29185 4.15772,-4.29185c2.29626,0 4.15772,1.92152 4.15772,4.29185c0,2.37029 -1.8615,4.29186 -4.15772,4.29186c-2.29626,0 -4.15772,-1.92156 -4.15772,-4.29186z" fill="#1aa700" stroke="none" stroke-width="0" stroke-linecap="butt"/><path d="M193.94902,185.51594c0,1.18518 -0.96075,2.14589 -2.14593,2.14589c-1.18518,0 -2.14593,-0.96074 -2.14593,-2.14589c0,-1.18518 0.96078,-2.14593 2.14593,-2.14593c1.18518,0 2.14593,0.96078 2.14593,2.14593z" fill="#1aa700" stroke="none" stroke-width="0" stroke-linecap="butt"/><path d="M251.48662,186.32065c-2.59256,0 -4.69423,-2.22173 -4.69423,-4.96243c0,-2.7407 2.10171,-4.96247 4.69423,-4.96247c2.59252,0 4.69419,2.22176 4.69419,4.96247c0,2.74067 -2.10167,4.96243 -4.69419,4.96243z" fill="#1aa700" stroke="none" stroke-width="0" stroke-linecap="butt"/><path d="M207.89754,188.86895c0,-4.22211 3.42272,-7.64483 7.64487,-7.64483c4.22211,0 7.64487,3.42272 7.64487,7.64483c0,4.22211 -3.42272,7.64487 -7.64487,7.64487c-4.22211,0 -7.64487,-3.42272 -7.64487,-7.64487z" fill="#1aa700" stroke="none" stroke-width="0" stroke-linecap="butt"/><path d="M199.8503,172.76746h25.75112" fill="none" stroke="#23d004" stroke-width="10" stroke-linecap="round"/><path d="M203.06477,177.2005c0,1.48145 -1.1409,2.68241 -2.54827,2.68241c-1.40737,0 -2.54826,-1.20096 -2.54826,-2.68241c0,-1.48145 1.1409,-2.6824 2.54826,-2.6824c1.40737,0 2.54827,1.20095 2.54827,2.6824z" fill="#23d004" stroke="#000000" stroke-width="0" stroke-linecap="butt"/><path d="M228.01114,177.87111c0,1.85181 -1.38111,3.35301 -3.08478,3.35301c-1.70367,0 -3.08473,-1.50116 -3.08473,-3.35301c0,-1.85181 1.38107,-3.35301 3.08473,-3.35301c1.70367,0 3.08478,1.5012 3.08478,3.35301z" fill="#1cb500" stroke="none" stroke-width="0" stroke-linecap="butt"/></g></g></g></svg>