<svg version="1.1" xmlns="http://www.w3.org/2000/svg" xmlns:xlink="http://www.w3.org/1999/xlink" width="184.79881" height="137.92587" viewBox="0,0,184.79881,137.92587"><g transform="translate(-147.60059,-113.03706)"><g data-paper-data="{&quot;isPaintingLayer&quot;:true}" fill-rule="nonzero" stroke-linejoin="miter" stroke-miterlimit="10" stroke-dasharray="" stroke-dashoffset="0" style="mix-blend-mode: normal"><g><path d="M204.65681,220.8698c0,0 -1.402,11.44038 -3.73222,16.93975c-2.55879,6.03874 -14.22505,1.16376 -12.44455,9.15338" fill="none" stroke="#ffcc66" stroke-width="8" stroke-linecap="round"/><path d="M247.29261,192.20644c0,-20.82772 16.88433,-37.71205 37.71214,-37.71205c20.82772,0 37.71197,16.88433 37.71197,37.71214c0,20.82772 -16.88425,37.71205 -37.71197,37.71205c-20.82772,0 -37.71205,-16.88424 -37.71205,-37.71205z" fill="#ffcc66" stroke="none" stroke-width="8" stroke-linecap="butt"/><path d="M166.35552,171.96207c0,-32.54335 26.38166,-58.92501 58.92501,-58.92501c32.54335,0 58.92501,26.38166 58.92501,58.92501c0,32.54335 -26.38166,58.92501 -58.92501,58.92501c-32.54335,0 -58.925,-26.38166 -58.925,-58.925z" fill="#ffcc66" stroke="none" stroke-width="8" stroke-linecap="butt"/><path d="M285.60391,205.10306l-58.55558,1.17848" fill="none" stroke="#ffcc66" stroke-width="50" stroke-linecap="round"/><path d="M224.71542,200.46742l51.48998,-0.70125" fill="#ffb012" stroke="#ffb012" stroke-width="46.5" stroke-linecap="round"/><path d="M176.72649,173.20657c0,-27.88096 22.60209,-50.48305 50.48305,-50.48305c27.88096,0 50.48305,22.60209 50.48305,50.48305c0,27.88096 -22.60208,50.48305 -50.48304,50.48305c-27.88096,0 -50.48305,-22.602 -50.48305,-50.48305z" fill="#ffb012" stroke="#ffb012" stroke-width="0" stroke-linecap="butt"/><path d="M295.40137,159.58775l8.24946,-14.73121c0,0 8.91305,0.93234 14.37062,-0.36707c5.45757,-1.29941 10.37795,-5.52551 10.37795,-5.52551" fill="none" stroke="#ffcc66" stroke-width="8" stroke-linecap="round"/><path d="M295.16322,138.52692l6.43717,5.45614" fill="none" stroke="#ffcc66" stroke-width="8" stroke-linecap="round"/><path d="M303.65083,219.69132c0,0 3.45069,5.59784 4.10123,9.63087c0.65055,4.03303 -1.15494,8.63588 -1.15494,8.63588" fill="none" stroke="#ffcc66" stroke-width="8" stroke-linecap="round"/><path d="M173.20475,121.39485c0,0 4.53246,2.9584 6.81626,5.28518c2.30752,2.35091 6.95822,8.74848 6.95822,8.74848" fill="none" stroke="#ffcc66" stroke-width="8" stroke-linecap="round"/><path d="M151.6006,173.09809c0,0 5.35531,-4.11839 8.43447,-4.87918c3.07916,-0.76079 8.08818,0.79678 8.08818,0.79678" fill="none" stroke="#ffcc66" stroke-width="8" stroke-linecap="round"/><path d="M250.69343,190.55056c0,-17.84384 14.46538,-32.30914 32.30923,-32.30914c17.84384,0 32.30906,14.46531 32.30906,32.30915c0,17.84384 -14.46522,32.30923 -32.30906,32.30923c-17.84384,0 -32.30922,-14.46538 -32.30922,-32.30922z" fill="#ffb012" stroke="#ffb012" stroke-width="0" stroke-linecap="butt"/><path d="M212.9971,160.37091v10.37097" fill="none" stroke="#02c1cf" stroke-width="39.5" stroke-linecap="round"/><path d="M207.75187,153.46634v10.37097" fill="none" stroke="#00d6e6" stroke-width="14" stroke-linecap="round"/><path d="M255.39394,190.75c0,-6.07513 4.92487,-11 11,-11c6.07513,0 11,4.92487 11,11c0,6.07513 -4.92487,11 -11,11c-6.07513,0 -11,-4.92487 -11,-11z" fill="#ffa412" stroke="none" stroke-width="0" stroke-linecap="butt"/><path d="M210.89394,208.5c0,-3.45178 2.79822,-6.25 6.25,-6.25c3.45178,0 6.25,2.79822 6.25,6.25c0,3.45178 -2.79822,6.25 -6.25,6.25c-3.45178,0 -6.25,-2.79822 -6.25,-6.25z" fill="#ffa412" stroke="none" stroke-width="0" stroke-linecap="butt"/><path d="M268.39394,204c0,-2.89949 2.35051,-5.25 5.25,-5.25c2.89949,0 5.25,2.35051 5.25,5.25c0,2.89949 -2.35051,5.25 -5.25,5.25c-2.89949,0 -5.25,-2.35051 -5.25,-5.25z" fill="#ffa412" stroke="none" stroke-width="0" stroke-linecap="butt"/><path d="M233.89394,144.25c0,-4.69442 3.80558,-8.5 8.5,-8.5c4.69442,0 8.5,3.80558 8.5,8.5c0,4.69442 -3.80558,8.5 -8.5,8.5c-4.69442,0 -8.5,-3.80558 -8.5,-8.5z" fill="#ffa412" stroke="none" stroke-width="0" stroke-linecap="butt"/></g></g></g></svg>