<svg version="1.1" xmlns="http://www.w3.org/2000/svg" xmlns:xlink="http://www.w3.org/1999/xlink" width="267.76984" height="74.33334" viewBox="0,0,267.76984,74.33334"><g transform="translate(-139.19683,-142.83333)"><g data-paper-data="{&quot;isPaintingLayer&quot;:true}" fill-rule="nonzero" stroke-linejoin="miter" stroke-miterlimit="10" stroke-dasharray="" stroke-dashoffset="0" style="mix-blend-mode: normal"><path d="M333.11667,179.46667c0,0 25.18471,-2.19333 37.53333,-2.93333c12.34863,-0.74 32.56667,-1.66667 32.56667,-1.66667" fill="none" stroke="#52e381" stroke-width="7.5" stroke-linecap="round"/><path d="M329.59266,175.62652c0,0 16.20624,13.61525 28.81432,17.03059c11.45112,3.10194 12.66326,-4.85288 21.15702,-3.49411c8.49376,1.35877 16.24333,9.47716 16.24333,9.47716" fill="none" stroke="#52e381" stroke-width="7.5" stroke-linecap="round"/><path d="M334.2139,177.84314c0,0 9.45058,-13.7129 18.68883,-17.56612c9.23825,-3.85322 16.49321,1.43001 26.54416,-1.30029c10.05095,-2.7303 23.47253,-12.28655 23.47253,-12.28655" fill="none" stroke="#52e381" stroke-width="7.5" stroke-linecap="round"/><g fill="#99ff86" stroke="none" stroke-width="0" stroke-linecap="butt"><path d="M139.19683,180.00001c0,-20.52658 16.00935,-37.16667 35.75788,-37.16667c19.74853,0 35.75788,16.64009 35.75788,37.16667c0,20.52658 -16.00935,37.16667 -35.75788,37.16667c-19.74853,0 -35.75788,-16.64009 -35.75788,-37.16667z"/><path d="M269.28741,180.00001c0,-20.52658 16.00934,-37.16667 35.75788,-37.16667c19.74854,0 35.75788,16.64009 35.75788,37.16667c0,20.52658 -16.00934,37.16667 -35.75788,37.16667c-19.74854,0 -35.75788,-16.64009 -35.75788,-37.16667z"/><path d="M269.28741,180.00001c0,-20.52658 16.00934,-37.16667 35.75788,-37.16667c19.74854,0 35.75788,16.64009 35.75788,37.16667c0,20.52658 -16.00934,37.16667 -35.75788,37.16667c-19.74854,0 -35.75788,-16.64009 -35.75788,-37.16667z"/><path d="M172.80282,217.16668v-74.33333h134.39437v74.33333z"/></g><g fill="#2efa1e" stroke="none" stroke-width="0" stroke-linecap="butt"><path d="M142.74287,180.00001c0,-19.05382 15.44618,-34.5 34.5,-34.5c19.05382,0 34.5,15.44618 34.5,34.5c0,19.05382 -15.44618,34.5 -34.5,34.5c-19.05382,0 -34.5,-15.44618 -34.5,-34.5z"/><path d="M268.25714,180.00001c0,-19.05382 15.44617,-34.5 34.5,-34.5c19.05383,0 34.5,15.44618 34.5,34.5c0,19.05382 -15.44617,34.5 -34.5,34.5c-19.05383,0 -34.5,-15.44618 -34.5,-34.5z"/><path d="M268.25714,180.00001c0,-19.05382 15.44617,-34.5 34.5,-34.5c19.05383,0 34.5,15.44618 34.5,34.5c0,19.05382 -15.44617,34.5 -34.5,34.5c-19.05383,0 -34.5,-15.44618 -34.5,-34.5z"/><path d="M175.16668,214.50001v-69h129.66667v69z"/></g><g fill="#52e381" stroke="none" stroke-width="0" stroke-linecap="butt"><path d="M145.74286,180.00001c0,-17.08538 14.96972,-30.93581 33.43581,-30.93581c18.46609,0 33.43581,13.85043 33.43581,30.93581c0,17.08538 -14.96972,30.93581 -33.43581,30.93581c-18.46609,0 -33.43581,-13.85043 -33.43581,-30.93581z"/><path d="M267.38552,180.00001c0,-17.08538 14.96972,-30.93581 33.43581,-30.93581c18.46609,0 33.43581,13.85043 33.43581,30.93581c0,17.08538 -14.96972,30.93581 -33.43581,30.93581c-18.46609,0 -33.43581,-13.85043 -33.43581,-30.93581z"/><path d="M267.38552,180.00001c0,-17.08538 14.96972,-30.93581 33.43581,-30.93581c18.46609,0 33.43581,13.85043 33.43581,30.93581c0,17.08538 -14.96972,30.93581 -33.43581,30.93581c-18.46609,0 -33.43581,-13.85043 -33.43581,-30.93581z"/><path d="M177.16652,210.93582v-61.87162h125.66696v61.87162z"/></g><path d="M294.83333,164.16668c0,-5.98308 4.85025,-10.83333 10.83333,-10.83333c5.98308,0 10.83333,4.85025 10.83333,10.83333c0,5.98308 -4.85025,10.83333 -10.83333,10.83333c-5.98308,0 -10.83333,-4.85025 -10.83333,-10.83333z" fill="#00cc69" stroke="none" stroke-width="0" stroke-linecap="butt"/><path d="M291.50001,171.50001c0,-3.95804 3.20862,-7.16666 7.16666,-7.16666c3.95804,0 7.16667,3.20862 7.16667,7.16666c0,3.95804 -3.20863,7.16667 -7.16667,7.16667c-3.95804,0 -7.16666,-3.20863 -7.16666,-7.16667z" fill="#00cc69" stroke="none" stroke-width="0" stroke-linecap="butt"/><path d="M164.5,193.83334c0,-5.98308 4.85025,-10.83333 10.83333,-10.83333c5.98308,0 10.83333,4.85025 10.83333,10.83333c0,5.98308 -4.85025,10.83334 -10.83333,10.83334c-5.98309,0 -10.83333,-4.85025 -10.83333,-10.83334z" fill="#00cc69" stroke="none" stroke-width="0" stroke-linecap="butt"/><path d="M213.83333,164.5c0,-2.11709 1.71624,-3.83333 3.83333,-3.83333c2.11709,0 3.83333,1.71624 3.83333,3.83333c0,2.11709 -1.71624,3.83333 -3.83333,3.83333c-2.11709,0 -3.83333,-1.71624 -3.83333,-3.83333z" fill="#00cc69" stroke="none" stroke-width="0" stroke-linecap="butt"/><path d="M251.16668,191.50001c0,-7.82403 6.34263,-14.16666 14.16666,-14.16666c7.82403,0 14.16667,6.34263 14.16667,14.16666c0,7.82403 -6.34263,14.16667 -14.16667,14.16667c-7.82403,0 -14.16666,-6.34263 -14.16666,-14.16667z" fill="#00cc69" stroke="none" stroke-width="0" stroke-linecap="butt"/><path d="M181.37875,151.33334c23.59345,0 23.59345,15.33333 0,15.33333c-23.59345,0 -23.59345,-15.33333 0,-15.33333z" fill="#61f390" stroke="none" stroke-width="0" stroke-linecap="butt"/><path d="M173.82143,153.16668c10.22928,0 10.22928,9 0,9c-10.22928,0 -10.22928,-9 0,-9z" fill="#ccffdd" stroke="none" stroke-width="0" stroke-linecap="butt"/></g></g></svg>