<svg version="1.1" xmlns="http://www.w3.org/2000/svg" xmlns:xlink="http://www.w3.org/1999/xlink" width="590" height="487" viewBox="0,0,590,487"><defs><radialGradient cx="48.5" cy="334" r="88" gradientUnits="userSpaceOnUse" id="color-1"><stop offset="0" stop-color="#ff774b"/><stop offset="1" stop-color="#ff544a"/></radialGradient><radialGradient cx="403" cy="82.5" r="147.5" gradientUnits="userSpaceOnUse" id="color-2"><stop offset="0" stop-color="#ff774b"/><stop offset="1" stop-color="#ff544a"/></radialGradient><radialGradient cx="132.5" cy="119" r="69" gradientUnits="userSpaceOnUse" id="color-3"><stop offset="0" stop-color="#ff854a" stop-opacity="0.60484"/><stop offset="1" stop-color="#ff544a"/></radialGradient><radialGradient cx="392.5" cy="351" r="36" gradientUnits="userSpaceOnUse" id="color-4"><stop offset="0" stop-color="#ff854a" stop-opacity="0.60484"/><stop offset="1" stop-color="#ff544a"/></radialGradient></defs><g transform="translate(39.5,65)"><g data-paper-data="{&quot;isPaintingLayer&quot;:true}" fill-rule="nonzero" stroke="none" stroke-width="0" stroke-linecap="butt" stroke-linejoin="miter" stroke-miterlimit="10" stroke-dasharray="" stroke-dashoffset="0" style="mix-blend-mode: normal"><path d="M-20,375.5v-391h520v391z" fill="#ff544a"/><path d="M-39.5,334c0,-48.60106 39.39894,-88 88,-88c48.60106,0 88,39.39894 88,88c0,48.60106 -39.39894,88 -88,88c-48.60106,0 -88,-39.39894 -88,-88z" fill="url(#color-1)"/><g fill-opacity="0.06452" fill="#000000"><path d="M218.91914,267c0,-19.09848 15.48236,-34.58086 34.58086,-34.58086c19.09848,0 34.58086,15.48236 34.58086,34.58086c0,19.09848 -15.48236,34.58086 -34.58086,34.58086c-19.09848,0 -34.58086,-15.48236 -34.58086,-34.58086z"/><path d="M220.08581,267c0,-18.45415 14.96003,-33.4142 33.4142,-33.4142c18.45414,0 33.4142,14.96003 33.4142,33.4142c0,18.45415 -14.96003,33.4142 -33.4142,33.4142c-18.45415,0 -33.4142,-14.96003 -33.4142,-33.4142z"/><path d="M221.58581,267c0,-17.62572 14.28846,-31.9142 31.9142,-31.9142c17.62572,0 31.9142,14.28846 31.9142,31.9142c0,17.62572 -14.28846,31.9142 -31.9142,31.9142c-17.62572,0 -31.9142,-14.28846 -31.9142,-31.9142z"/><path d="M225.41914,267c0,-15.50863 12.57222,-28.08086 28.08086,-28.08086c15.50863,0 28.08087,12.57222 28.08087,28.08086c0,15.50863 -12.57223,28.08086 -28.08087,28.08086c-15.50863,0 -28.08086,-12.57222 -28.08086,-28.08086z"/><g><path d="M256.48486,268.35214c-4.55486,8.33445 -13.31465,12.32154 -19.56553,8.90541c-6.25086,-3.41616 -7.62571,-12.94194 -3.07085,-21.27639c4.55486,-8.33445 13.31465,-12.32152 19.56553,-8.90536c6.25086,3.41616 7.62571,12.94189 3.07085,21.27638z"/><path d="M247.65879,263.78936c-2.39403,4.38057 -6.99813,6.47615 -10.28355,4.68063c-3.28544,-1.79551 -4.00803,-6.80223 -1.614,-11.18279c2.39403,-4.38057 6.99813,-6.47615 10.28355,-4.68063c3.28544,1.79551 4.00803,6.80223 1.614,11.18279z"/></g><path d="M242.14283,259.83984c-1.12209,2.05318 -3.28004,3.03539 -4.81992,2.19382c-1.53989,-0.84156 -1.87857,-3.18822 -0.75649,-5.2414c1.12209,-2.05318 3.28004,-3.03539 4.81992,-2.19382c1.53989,0.84156 1.87857,3.18822 0.75649,5.2414z"/><path d="M241.58057,261.90907c-0.64123,1.17332 -1.87442,1.73461 -2.7544,1.25369c-0.87999,-0.48092 -1.07353,-1.82195 -0.4323,-2.99526c0.64123,-1.17332 1.87442,-1.73461 2.7544,-1.25369c0.87999,0.48092 1.07353,1.82195 0.4323,2.99526z"/><path d="M226.73374,280.776c-0.18271,-2.35855 0.97536,-4.37172 2.58662,-4.49654c1.61126,-0.12482 3.06557,1.68597 3.24828,4.04453c0.18271,2.35855 -0.97536,4.37173 -2.58663,4.49655c-1.61126,0.12482 -3.06556,-1.68598 -3.24827,-4.04454z"/></g><path d="M255.5,82.5c0,-81.462 66.038,-147.5 147.5,-147.5c81.462,0 147.5,66.038 147.5,147.5c0,81.462 -66.038,147.5 -147.5,147.5c-81.462,0 -147.5,-66.038 -147.5,-147.5z" fill="url(#color-2)"/><path d="M63.5,119c0,-38.10765 30.89235,-69 69,-69c38.10765,0 69,30.89235 69,69c0,38.10765 -30.89235,69 -69,69c-38.10765,0 -69,-30.89235 -69,-69z" fill="url(#color-3)"/><path d="M356.5,351c0,-19.88225 16.11775,-36 36,-36c19.88225,0 36,16.11775 36,36c0,19.88225 -16.11775,36 -36,36c-19.88225,0 -36,-16.11775 -36,-36z" fill="url(#color-4)"/><g><path d="M409.69471,227.78498c-4.29953,11.70551 -17.27416,17.70926 -28.97969,13.40973c-11.70551,-4.29952 -17.70926,-17.27416 -13.40973,-28.97969c4.29953,-11.70551 17.27416,-17.70926 28.97969,-13.40973c11.70551,4.29952 17.70926,17.27416 13.40973,28.97969z" fill="#f70505"/><path d="M408.97966,227.52234c-4.15447,11.3106 -16.69138,17.1118 -28.00199,12.95732c-11.31059,-4.15447 -17.1118,-16.69138 -12.95733,-28.002c4.15447,-11.3106 16.69138,-17.11179 28.002,-12.95732c11.3106,4.15447 17.1118,16.69138 12.95732,28.00199z" fill="#f70505"/><path d="M408.0603,227.18465c-3.96797,10.80285 -15.94209,16.34363 -26.74496,12.37565c-10.80286,-3.96797 -16.34363,-15.94209 -12.37565,-26.74496c3.96797,-10.80285 15.94209,-16.34363 26.74496,-12.37565c10.80286,3.96797 16.34363,15.94209 12.37565,26.74496z" fill="#f71805"/><path d="M405.71084,226.32168c-3.49136,9.50528 -14.02723,14.38053 -23.53252,10.88916c-9.50529,-3.49137 -14.38053,-14.02722 -10.88917,-23.53251c3.49136,-9.50528 14.02723,-14.38053 23.53252,-10.88916c9.50529,3.49137 14.38053,14.02722 10.88916,23.53251z" fill="#f56345"/><g fill="#0052ff"><path d="M386.97497,218.49931c4.66797,-4.0828 10.93446,-4.55446 13.99659,-1.05348c3.06211,3.50099 1.76028,9.64888 -2.90769,13.73168c-4.66797,4.0828 -10.93446,4.55445 -13.99658,1.05346c-3.06211,-3.50099 -1.76029,-9.64885 2.90769,-13.73168z"/><path d="M391.3573,223.28281c2.45348,-2.14591 5.74711,-2.3938 7.35654,-0.5537c1.60944,1.8401 0.92519,5.07141 -1.52828,7.21732c-2.45348,2.14591 -5.74711,2.3938 -7.35654,0.5537c-1.60944,-1.8401 -0.92519,-5.07141 1.52828,-7.21732z"/></g><path d="M393.84892,226.94526c1.14995,-1.00579 2.69368,-1.12198 3.44802,-0.25952c0.75435,0.86246 0.43363,2.37697 -0.71631,3.38277c-1.14995,1.00579 -2.69368,1.12198 -3.44802,0.25952c-0.75435,-0.86246 -0.43363,-2.37697 0.71631,-3.38277z" fill="#70c6ff"/><path d="M394.65937,225.8036c0.65715,-0.57477 1.53934,-0.64117 1.97042,-0.14831c0.43108,0.49286 0.2478,1.35836 -0.40935,1.93313c-0.65715,0.57477 -1.53934,0.64117 -1.97042,0.14831c-0.43108,-0.49286 -0.2478,-1.35835 0.40935,-1.93312z" fill="#70c6ff"/><path d="M408.00643,217.58238c-0.41899,1.48669 -1.58198,2.45986 -2.59762,2.17363c-1.01565,-0.28623 -1.49935,-1.72347 -1.08036,-3.21017c0.41899,-1.48669 1.58199,-2.45988 2.59764,-2.17364c1.01565,0.28623 1.49933,1.72348 1.08035,3.21018z" fill="#e45252"/></g><g fill-opacity="0.06452" fill="#000000"><path d="M35.17152,347.48384c-8.10965,5.34143 -19.01391,3.09735 -24.35536,-5.01232c-5.34143,-8.10965 -3.09735,-19.01391 5.01232,-24.35535c8.10966,-5.34143 19.01392,-3.09735 24.35536,5.01232c5.34143,8.10965 3.09735,19.01391 -5.01232,24.35535z"/><path d="M34.84523,346.98844c-7.83606,5.16123 -18.37244,2.99285 -23.53368,-4.84322c-5.16122,-7.83605 -2.99286,-18.37243 4.84321,-23.53367c7.83606,-5.16123 18.37244,-2.99286 23.53368,4.84321c5.16123,7.83606 2.99286,18.37244 -4.84321,23.53368z"/><path d="M34.42571,346.35151c-7.48429,4.92953 -17.54768,2.8585 -22.47722,-4.62579c-4.92953,-7.48429 -2.8585,-17.54769 4.6258,-22.47722c7.48429,-4.92953 17.54768,-2.8585 22.47722,4.62579c4.92954,7.48429 2.8585,17.54769 -4.62579,22.47722z"/><path d="M33.35361,344.72379c-6.58533,4.33743 -15.43997,2.51515 -19.7774,-4.07018c-4.33743,-6.58533 -2.51516,-15.43997 4.07017,-19.7774c6.58533,-4.33743 15.43997,-2.51515 19.7774,4.07018c4.33743,6.58533 2.51516,15.43997 -4.07017,19.7774z"/><g><path d="M25.23935,331.1544c4.8129,-0.39686 8.95583,2.20764 9.2535,5.81732c0.29765,3.60969 -3.3627,6.85764 -8.1756,7.2545c-4.8129,0.39686 -8.95582,-2.20764 -9.25348,-5.81734c-0.29765,-3.60969 3.36267,-6.85762 8.17559,-7.2545z"/><path d="M25.77035,336.17826c2.52965,-0.20859 4.70715,1.16032 4.86359,3.05756c0.15645,1.89724 -1.76742,3.60434 -4.29707,3.81293c-2.52965,0.20859 -4.70715,-1.16033 -4.86359,-3.05757c-0.15645,-1.89724 1.76743,-3.60433 4.29707,-3.81292z"/></g><path d="M25.63599,339.62506c1.18565,-0.09776 2.20625,0.54385 2.27957,1.43309c0.07333,0.88924 -0.8284,1.68936 -2.01404,1.78713c-1.18565,0.09776 -2.20626,-0.54385 -2.27958,-1.43309c-0.07333,-0.88924 0.8284,-1.68936 2.01405,-1.78713z"/><path d="M26.67188,339.28509c0.67756,-0.05587 1.2608,0.31078 1.3027,0.81895c0.0419,0.50817 -0.4734,0.9654 -1.15096,1.02128c-0.67756,0.05587 -1.26079,-0.31078 -1.30269,-0.81895c-0.0419,-0.50817 0.4734,-0.9654 1.15095,-1.02128z"/><path d="M38.83556,340.31273c-0.9504,0.73722 -2.12912,0.80851 -2.63275,0.15924c-0.50364,-0.64927 -0.14148,-1.77325 0.80892,-2.51047c0.9504,-0.73722 2.12913,-0.80852 2.63276,-0.15924c0.50364,0.64927 0.14147,1.77325 -0.80893,2.51047z"/></g><g fill-opacity="0.06452" fill="#000000"><path d="M37.91914,30c0,-5.84365 4.73721,-10.58086 10.58086,-10.58086c5.84365,0 10.58086,4.73721 10.58086,10.58086c0,5.84365 -4.73721,10.58086 -10.58086,10.58086c-5.84365,0 -10.58086,-4.73721 -10.58086,-10.58086z"/><path d="M38.27611,30c0,-5.6465 4.57739,-10.22389 10.22389,-10.22389c5.6465,0 10.22389,4.57738 10.22389,10.22389c0,5.6465 -4.57738,10.22389 -10.22389,10.22389c-5.6465,0 -10.22389,-4.57738 -10.22389,-10.22389z"/><path d="M38.73508,30c0,-5.39302 4.3719,-9.76493 9.76493,-9.76493c5.39302,0 9.76493,4.3719 9.76493,9.76493c0,5.39302 -4.3719,9.76493 -9.76493,9.76493c-5.39302,0 -9.76493,-4.3719 -9.76493,-9.76493z"/><path d="M39.90798,30c0,-4.74525 3.84678,-8.59202 8.59203,-8.59202c4.74524,0 8.59203,3.84678 8.59203,8.59203c0,4.74524 -3.84678,8.59203 -8.59203,8.59203c-4.74524,0 -8.59202,-3.84678 -8.59202,-8.59202z"/><g><path d="M49.41329,30.41372c-1.39367,2.55013 -4.07394,3.77008 -5.98655,2.72483c-1.9126,-1.04526 -2.33328,-3.95991 -0.93961,-6.51004c1.39367,-2.55013 4.07394,-3.77007 5.98655,-2.72481c1.9126,1.04526 2.33327,3.95989 0.9396,6.51003z"/><path d="M46.71274,29.01763c-0.73251,1.34034 -2.14125,1.98154 -3.1465,1.43216c-1.00526,-0.54938 -1.22635,-2.08131 -0.49385,-3.42165c0.73251,-1.34034 2.14125,-1.98154 3.14651,-1.43215c1.00526,0.54938 1.22635,2.0813 0.49384,3.42164z"/></g><path d="M45.025,27.80918c-0.34333,0.62822 -1.00361,0.92875 -1.47477,0.67125c-0.47116,-0.25749 -0.5748,-0.97552 -0.23147,-1.60374c0.34333,-0.62822 1.00361,-0.92875 1.47477,-0.67125c0.47116,0.25749 0.5748,0.97552 0.23147,1.60374z"/><path d="M44.85296,28.44231c-0.1962,0.359 -0.57353,0.53075 -0.84278,0.3836c-0.26926,-0.14715 -0.32847,-0.55747 -0.13227,-0.91647c0.1962,-0.359 0.57353,-0.53075 0.84278,-0.3836c0.26926,0.14715 0.32847,0.55747 0.13227,0.91648z"/><path d="M40.31021,34.21511c-0.05591,-0.72165 0.29844,-1.33763 0.79144,-1.37582c0.493,-0.03819 0.93798,0.51586 0.99389,1.23752c0.05591,0.72165 -0.29844,1.33764 -0.79145,1.37583c-0.493,0.03819 -0.93798,-0.51586 -0.99388,-1.23752z"/></g></g></g></svg>