<svg version="1.1" xmlns="http://www.w3.org/2000/svg" xmlns:xlink="http://www.w3.org/1999/xlink" width="69.16172" height="69.16172" viewBox="0,0,69.16172,69.16172"><g transform="translate(-205.41914,-145.41914)"><g data-paper-data="{&quot;isPaintingLayer&quot;:true}" fill-rule="nonzero" stroke-linejoin="miter" stroke-miterlimit="10" stroke-dasharray="" stroke-dashoffset="0" style="mix-blend-mode: normal"><path d="M205.41914,180c0,-19.09848 15.48236,-34.58086 34.58086,-34.58086c19.09848,0 34.58086,15.48236 34.58086,34.58086c0,19.09848 -15.48236,34.58086 -34.58086,34.58086c-19.09848,0 -34.58086,-15.48236 -34.58086,-34.58086z" fill="#f70505" stroke="none" stroke-width="0" stroke-linecap="butt"/><path d="M206.58581,180c0,-18.45415 14.96003,-33.4142 33.4142,-33.4142c18.45414,0 33.4142,14.96003 33.4142,33.4142c0,18.45415 -14.96003,33.4142 -33.4142,33.4142c-18.45415,0 -33.4142,-14.96003 -33.4142,-33.4142z" fill="#f75c05" stroke="none" stroke-width="0" stroke-linecap="butt"/><path d="M208.08581,180c0,-17.62572 14.28846,-31.9142 31.9142,-31.9142c17.62572,0 31.9142,14.28846 31.9142,31.9142c0,17.62572 -14.28846,31.9142 -31.9142,31.9142c-17.62572,0 -31.9142,-14.28846 -31.9142,-31.9142z" fill="#f86904" stroke="none" stroke-width="0" stroke-linecap="butt"/><path d="M211.91914,180c0,-15.50863 12.57222,-28.08086 28.08086,-28.08086c15.50863,0 28.08087,12.57222 28.08087,28.08086c0,15.50863 -12.57223,28.08086 -28.08087,28.08086c-15.50863,0 -28.08086,-12.57222 -28.08086,-28.08086z" fill="#f58d45" stroke="none" stroke-width="0" stroke-linecap="butt"/><g stroke="none" stroke-width="0" stroke-linecap="butt"><path d="M242.98486,181.35214c-4.55486,8.33445 -13.31465,12.32154 -19.56553,8.90541c-6.25086,-3.41616 -7.62571,-12.94194 -3.07085,-21.27639c4.55486,-8.33445 13.31465,-12.32152 19.56553,-8.90536c6.25086,3.41616 7.62571,12.94189 3.07085,21.27638z" fill="#2787e9"/><path d="M234.15879,176.78936c-2.39403,4.38057 -6.99813,6.47615 -10.28355,4.68063c-3.28544,-1.79551 -4.00803,-6.80223 -1.614,-11.18279c2.39403,-4.38057 6.99813,-6.47615 10.28355,-4.68063c3.28544,1.79551 4.00803,6.80223 1.614,11.18279z" fill="#4fd9ff"/></g><path d="M256.58333,202.28343c0,-4.60549 3.73349,-8.33898 8.33898,-8.33898c4.60549,0 -8.33898,12.94447 -8.33898,8.33898z" fill="#f86904" stroke="none" stroke-width="0" stroke-linecap="butt"/><path d="M223.27778,203.38889c0,-2.42391 1.96497,-4.38889 4.38888,-4.38889c2.42391,0 4.38889,1.96498 4.38889,4.38889c0,2.42391 -1.96498,4.38889 -4.38889,4.38889c-2.42391,0 -4.38888,-1.96498 -4.38888,-4.38889z" fill="#f58d45" stroke="none" stroke-width="0" stroke-linecap="butt"/><path d="M228.64283,172.83984c-1.12209,2.05318 -3.28004,3.03539 -4.81992,2.19382c-1.53989,-0.84156 -1.87857,-3.18822 -0.75649,-5.2414c1.12209,-2.05318 3.28004,-3.03539 4.81992,-2.19382c1.53989,0.84156 1.87857,3.18822 0.75649,5.2414z" fill="#70fffb" stroke="none" stroke-width="0" stroke-linecap="butt"/><path d="M228.08057,174.90907c-0.64123,1.17332 -1.87442,1.73461 -2.7544,1.25369c-0.87999,-0.48092 -1.07353,-1.82195 -0.4323,-2.99526c0.64123,-1.17332 1.87442,-1.73461 2.7544,-1.25369c0.87999,0.48092 1.07353,1.82195 0.4323,2.99526z" fill="#70fffb" stroke="none" stroke-width="0" stroke-linecap="butt"/><path d="M261.27381,185.5l-1.5,2.33333" fill="none" stroke="#e45252" stroke-width="3" stroke-linecap="round"/><path d="M258.90891,183.52456c2.1048,-2.22645 5.19767,-2.72052 6.90812,-1.10353c1.71045,1.61699 1.39077,4.73272 -0.71403,6.95917c-2.1048,2.22645 -5.19767,2.72052 -6.90812,1.10353c-1.71045,-1.61699 -1.39077,-4.73272 0.71403,-6.95917z" fill="#e45252" stroke="none" stroke-width="0" stroke-linecap="butt"/><path d="M213.23374,193.776c-0.18271,-2.35855 0.97536,-4.37172 2.58662,-4.49654c1.61126,-0.12482 3.06557,1.68597 3.24828,4.04453c0.18271,2.35855 -0.97536,4.37173 -2.58663,4.49655c-1.61126,0.12482 -3.06556,-1.68598 -3.24827,-4.04454z" fill="#e45252" stroke="none" stroke-width="0" stroke-linecap="butt"/><path d="M236.14534,151.96366c0.49331,-2.03973 3.36707,-3.09496 6.41873,-2.35692c3.05167,0.73804 5.12563,2.98987 4.63232,5.0296c-0.49331,2.03973 -3.36708,3.09497 -6.41874,2.35692c-3.05167,-0.73804 -5.12562,-2.98987 -4.63231,-5.02961z" fill="#e45252" stroke="none" stroke-width="0" stroke-linecap="butt"/></g></g></svg>