<svg version="1.1" xmlns="http://www.w3.org/2000/svg" xmlns:xlink="http://www.w3.org/1999/xlink" width="59.38223" height="57.90825" viewBox="0,0,59.38223,57.90825"><g transform="translate(-210.30888,-149.12747)"><g data-paper-data="{&quot;isPaintingLayer&quot;:true}" fill-rule="nonzero" stroke-linejoin="miter" stroke-miterlimit="10" stroke-dasharray="" stroke-dashoffset="0" style="mix-blend-mode: normal"><g fill="#ffdb00" stroke="#ffb53a" stroke-width="2" stroke-linecap="butt"><path d="M224.61787,185.68114c4.6998,-9.26403 15.73928,-31.30614 15.73928,-31.30614c0,0 13.07356,26.24549 17.73557,35.70798c3.07571,6.24276 -9.11446,15.54202 -17.59271,15.54202c-8.60325,0 -19.63333,-12.54969 -15.88214,-19.94386z"/><path d=""/><path d="M240.25,205.625l25.5,-51.25c0,0 0,39.08568 0,46.5625c0,2.3723 -2.77783,4.6875 -5.01423,4.6875c-4.52035,0 -20.48577,0 -20.48577,0z"/><path d="M214.5,200.9375c0,-7.98004 0,-46.5625 0,-46.5625l25.5,51.25c0,0 -16.14355,0 -20.63923,0c-2.18173,0 -4.86077,-1.83333 -4.86077,-4.6875z"/></g><g stroke-linecap="butt"><path d="M212.41319,152.64286c0,-1.31032 1.06222,-2.37253 2.37253,-2.37253c1.31032,0 2.37253,1.06221 2.37253,2.37253c0,1.31032 -1.06221,2.37253 -2.37253,2.37253c-1.31032,0 -2.37253,-1.06222 -2.37253,-2.37253z" fill="#94f545" stroke="#37ff0f" stroke-width="1"/><path d="M214.75253,152.4947c-0.32841,0.60092 -0.96,0.88839 -1.4107,0.64209c-0.45069,-0.24631 -0.54982,-0.93313 -0.22141,-1.53405c0.32841,-0.60092 0.96,-0.8884 1.4107,-0.64209c0.45069,0.24631 0.54982,0.93313 0.22141,1.53405z" fill="#9cff4f" stroke="none" stroke-width="0"/><path d="M214.17023,152.02152c-0.17261,0.31584 -0.50457,0.46694 -0.74146,0.33748c-0.23689,-0.12946 -0.28898,-0.49045 -0.11637,-0.80629c0.17261,-0.31584 0.50457,-0.46693 0.74145,-0.33747c0.23689,0.12946 0.28898,0.49045 0.11637,0.80629z" fill="#b6ff7a" stroke="none" stroke-width="0"/></g><g stroke-linecap="butt"><path d="M237.6989,152c0,-1.31032 1.06221,-2.37253 2.37253,-2.37253c1.31032,0 2.37253,1.06222 2.37253,2.37253c0,1.31032 -1.06222,2.37253 -2.37253,2.37253c-1.31032,0 -2.37253,-1.06222 -2.37253,-2.37253z" fill="#94f545" stroke="#37ff0f" stroke-width="1"/><path d="M240.03824,151.85185c-0.32841,0.60092 -0.96,0.88839 -1.4107,0.64209c-0.45069,-0.24631 -0.54982,-0.93313 -0.22141,-1.53405c0.32841,-0.60092 0.96,-0.8884 1.4107,-0.64209c0.45069,0.24631 0.54982,0.93313 0.22141,1.53405z" fill="#9cff4f" stroke="none" stroke-width="0"/><path d="M239.45595,151.37866c-0.17261,0.31584 -0.50457,0.46694 -0.74146,0.33748c-0.23689,-0.12946 -0.28898,-0.49045 -0.11637,-0.80629c0.17261,-0.31584 0.50457,-0.46693 0.74146,-0.33747c0.23689,0.12946 0.28898,0.49045 0.11637,0.80629z" fill="#b6ff7a" stroke="none" stroke-width="0"/></g><g stroke-linecap="butt"><path d="M262.84175,153.14286c0,-1.31032 1.06222,-2.37253 2.37253,-2.37253c1.31032,0 2.37253,1.06221 2.37253,2.37253c0,1.31032 -1.06221,2.37253 -2.37253,2.37253c-1.31032,0 -2.37253,-1.06222 -2.37253,-2.37253z" fill="#94f545" stroke="#37ff0f" stroke-width="1"/><path d="M265.1811,152.9947c-0.32841,0.60092 -0.96,0.88839 -1.4107,0.64209c-0.45069,-0.24631 -0.54982,-0.93313 -0.22141,-1.53405c0.32841,-0.60092 0.96,-0.8884 1.41069,-0.64209c0.45069,0.24631 0.54982,0.93313 0.22141,1.53405z" fill="#9cff4f" stroke="none" stroke-width="0"/><path d="M264.5988,152.52152c-0.17261,0.31584 -0.50457,0.46694 -0.74145,0.33748c-0.23688,-0.12946 -0.28898,-0.49045 -0.11637,-0.80629c0.17261,-0.31584 0.50458,-0.46693 0.74146,-0.33747c0.23688,0.12946 0.28898,0.49045 0.11637,0.80629z" fill="#b6ff7a" stroke="none" stroke-width="0"/></g><g fill="#ffdb00" stroke="#ffb53a" stroke-width="0" stroke-linecap="butt"><path d="M225.41851,185.36442c4.43779,-8.74757 14.86183,-29.56085 14.86183,-29.56085c0,0 12.34472,24.78233 16.74682,33.71729c2.90424,5.89473 -8.60634,14.67557 -16.61193,14.67557c-8.12363,0 -18.53879,-11.85006 -14.99672,-18.83201z"/><path d=""/><path d=""/><path d=""/></g><path d="M213.05889,204.28572h53.88223" fill="none" stroke="#ffe12d" stroke-width="5.5" stroke-linecap="round"/></g></g></svg>