<svg version="1.1" xmlns="http://www.w3.org/2000/svg" xmlns:xlink="http://www.w3.org/1999/xlink" width="100.92014" height="109.35788" viewBox="0,0,100.92014,109.35788"><g transform="translate(-189.53993,-125.32106)"><g data-paper-data="{&quot;isPaintingLayer&quot;:true}" fill-rule="nonzero" stroke="none" stroke-width="0" stroke-linecap="butt" stroke-linejoin="miter" stroke-miterlimit="10" stroke-dasharray="" stroke-dashoffset="0" style="mix-blend-mode: normal"><path d="M198.42789,222.32106c-19.99789,-13.71421 0,-5.96044 0,-26.66666c0,-22.481 0,-70.33333 0,-70.33333h83.30169c0,0 0,46.99345 0,69.33333c0,20.89704 19.64361,13.36068 0,27.66666c-19.64361,14.30598 -56.30401,18.51454 -83.30169,0z" fill="#ff7474"/><path d="M202.26609,220.77308c-18.15156,-13.21258 0,-5.74243 0,-25.69128c0,-21.6587 0,-67.76074 0,-67.76074h75.61074c0,0 0,45.27457 0,66.79732c0,20.13269 17.82999,12.87198 0,26.6547c-17.82999,13.78271 -51.10566,17.83733 -75.61074,0z" fill="#ff0000"/><path d="M206.7243,218.94079c-16.00698,-11.91672 0,-5.17922 0,-23.17151c0,-19.53446 0,-61.11488 0,-61.11488c0,0 21.60984,100.37427 0,84.28639z" fill="#ff3131"/><path d="M205.13129,219.74109c-16.77328,-12.87816 86.34562,-13.43386 69.86949,0c-16.47613,13.43386 -47.22513,17.38585 -69.86949,0z" fill="#ca0000"/></g></g></svg>