<svg version="1.1" xmlns="http://www.w3.org/2000/svg" xmlns:xlink="http://www.w3.org/1999/xlink" width="234.99506" height="155.49506" viewBox="0,0,234.99506,155.49506"><g transform="translate(-122.50247,-102.25247)"><g data-paper-data="{&quot;isPaintingLayer&quot;:true}" fill-rule="nonzero" stroke-linecap="butt" stroke-linejoin="miter" stroke-miterlimit="10" stroke-dasharray="" stroke-dashoffset="0" style="mix-blend-mode: normal"><g><g><path d="M125.50247,146.91667c0,-5.79762 4.69991,-10.49753 10.49753,-10.49753c5.79763,0 10.49753,4.69991 10.49753,10.49753c0,5.79762 -4.6999,10.49753 -10.49753,10.49753c-5.79763,0 -10.49753,-4.69991 -10.49753,-10.49753z" fill="#94f545" stroke="#37ff0f" stroke-width="4"/><path d="M135.85315,146.26114c-1.45309,2.65885 -4.24764,3.93081 -6.24179,2.841c-1.99415,-1.08982 -2.43274,-4.12873 -0.97966,-6.78758c1.45309,-2.65885 4.24763,-3.9308 6.24178,-2.84098c1.99415,1.08982 2.43275,4.12871 0.97966,6.78757z" fill="#9cff4f" stroke="none" stroke-width="0"/><path d="M133.27672,144.16749c-0.76374,1.39748 -2.23254,2.06601 -3.28065,1.49321c-1.04812,-0.57281 -1.27864,-2.17005 -0.51489,-3.56753c0.76374,-1.39748 2.23253,-2.06601 3.28064,-1.49321c1.04812,0.57281 1.27864,2.17005 0.5149,3.56753z" fill="#b6ff7a" stroke="none" stroke-width="0"/><path d="M132.53418,146.31012c-0.45113,0.82548 -1.31874,1.22037 -1.93785,0.88202c-0.61911,-0.33835 -0.75528,-1.28182 -0.30415,-2.1073c0.45113,-0.82548 1.31874,-1.22038 1.93785,-0.88203c0.61911,0.33835 0.75528,1.28182 0.30415,2.10731z" fill="#b6ff7a" stroke="none" stroke-width="0"/></g><g><path d="M249.66914,127.75c0,-5.79763 4.69991,-10.49753 10.49753,-10.49753c5.79762,0 10.49753,4.6999 10.49753,10.49753c0,5.79763 -4.69991,10.49753 -10.49753,10.49753c-5.79762,0 -10.49753,-4.69991 -10.49753,-10.49753z" fill="#94f545" stroke="#37ff0f" stroke-width="4"/><path d="M260.01982,127.09447c-1.45309,2.65885 -4.24764,3.93081 -6.24178,2.841c-1.99415,-1.08982 -2.43274,-4.12873 -0.97966,-6.78758c1.45309,-2.65885 4.24763,-3.9308 6.24178,-2.84098c1.99415,1.08982 2.43275,4.12871 0.97966,6.78757z" fill="#9cff4f" stroke="none" stroke-width="0"/><path d="M257.44339,125.00082c-0.76374,1.39748 -2.23254,2.06601 -3.28065,1.49321c-1.04812,-0.5728 -1.27863,-2.17004 -0.51489,-3.56752c0.76374,-1.39748 2.23253,-2.06601 3.28064,-1.49321c1.04812,0.5728 1.27864,2.17004 0.5149,3.56752z" fill="#b6ff7a" stroke="none" stroke-width="0"/><path d="M256.70085,127.14346c-0.45114,0.82548 -1.31874,1.22037 -1.93785,0.88202c-0.61912,-0.33835 -0.75529,-1.28182 -0.30415,-2.1073c0.45114,-0.82548 1.31874,-1.22038 1.93785,-0.88203c0.61912,0.33835 0.75529,1.28182 0.30415,2.1073z" fill="#b6ff7a" stroke="none" stroke-width="0"/></g><g><path d="M255.66914,245.25c0,-5.79762 4.69991,-10.49753 10.49753,-10.49753c5.79763,0 10.49753,4.69991 10.49753,10.49753c0,5.79763 -4.6999,10.49753 -10.49753,10.49753c-5.79762,0 -10.49753,-4.69991 -10.49753,-10.49753z" fill="#94f545" stroke="#37ff0f" stroke-width="4"/><path d="M266.01982,244.59447c-1.45309,2.65885 -4.24764,3.93082 -6.24178,2.841c-1.99415,-1.08982 -2.43275,-4.12873 -0.97966,-6.78758c1.45309,-2.65885 4.24763,-3.9308 6.24178,-2.84098c1.99415,1.08982 2.43275,4.12871 0.97966,6.78757z" fill="#9cff4f" stroke="none" stroke-width="0"/><path d="M263.44339,242.50082c-0.76374,1.39749 -2.23254,2.06601 -3.28065,1.49321c-1.04812,-0.57281 -1.27864,-2.17005 -0.51489,-3.56753c0.76374,-1.39748 2.23253,-2.06601 3.28064,-1.49321c1.04812,0.57281 1.27864,2.17004 0.5149,3.56752z" fill="#b6ff7a" stroke="none" stroke-width="0"/><path d="M262.70085,244.64345c-0.45113,0.82548 -1.31874,1.22037 -1.93785,0.88202c-0.61912,-0.33835 -0.75529,-1.28182 -0.30415,-2.1073c0.45114,-0.82548 1.31874,-1.22038 1.93785,-0.88203c0.61911,0.33835 0.75528,1.28183 0.30415,2.1073z" fill="#b6ff7a" stroke="none" stroke-width="0"/></g><g><path d="M262.50247,234.5c0,-8.42098 6.82655,-15.24753 15.24753,-15.24753c8.42098,0 15.24753,6.82655 15.24753,15.24753c0,8.42098 -6.82655,15.24753 -15.24753,15.24753c-8.42098,0 -15.24753,-6.82655 -15.24753,-15.24753z" fill="#f54545" stroke="#ff7676" stroke-width="4"/><path d="M277.28671,233.79785c-2.11059,3.86195 -6.16964,5.70946 -9.06612,4.12652c-2.89647,-1.58295 -3.53354,-5.99693 -1.42295,-9.85888c2.11059,-3.86194 6.16963,-5.70944 9.06611,-4.12649c2.89647,1.58295 3.53354,5.9969 1.42294,9.85886z" fill="#ff534f" stroke="none" stroke-width="0"/><path d="M273.54448,230.75685c-1.10933,2.02983 -3.24273,3.00087 -4.76511,2.16888c-1.52238,-0.83199 -1.85721,-3.15196 -0.74788,-5.18178c1.10933,-2.02983 3.24273,-3.00087 4.7651,-2.16888c1.52238,0.83199 1.85721,3.15196 0.74788,5.18178z" fill="#ff7a7a" stroke="none" stroke-width="0"/><path d="M272.46595,233.869c-0.65526,1.199 -1.91545,1.77258 -2.81471,1.28114c-0.89925,-0.49145 -1.09704,-1.86183 -0.44178,-3.06083c0.65526,-1.199 1.91545,-1.77258 2.81471,-1.28114c0.89925,0.49145 1.09704,1.86183 0.44178,3.06083z" fill="#ff7a7a" stroke="none" stroke-width="0"/></g><g><path d="M248.00247,140.5c0,-8.42098 6.82655,-15.24753 15.24753,-15.24753c8.42098,0 15.24753,6.82655 15.24753,15.24753c0,8.42098 -6.82655,15.24753 -15.24753,15.24753c-8.42098,0 -15.24753,-6.82655 -15.24753,-15.24753z" fill="#f54545" stroke="#ff7676" stroke-width="4"/><path d="M262.78671,139.79785c-2.11059,3.86194 -6.16963,5.70946 -9.06611,4.12652c-2.89647,-1.58295 -3.53354,-5.99693 -1.42295,-9.85888c2.11059,-3.86194 6.16963,-5.70944 9.06611,-4.12649c2.89647,1.58295 3.53354,5.9969 1.42294,9.85886z" fill="#ff534f" stroke="none" stroke-width="0"/><path d="M259.04448,136.75685c-1.10933,2.02983 -3.24274,3.00087 -4.76511,2.16888c-1.52238,-0.83199 -1.85721,-3.15196 -0.74788,-5.18178c1.10933,-2.02983 3.24273,-3.00087 4.7651,-2.16888c1.52238,0.83199 1.85721,3.15196 0.74788,5.18178z" fill="#ff7a7a" stroke="none" stroke-width="0"/><path d="M257.96595,139.869c-0.65527,1.199 -1.91545,1.77258 -2.81471,1.28114c-0.89926,-0.49145 -1.09704,-1.86183 -0.44178,-3.06083c0.65526,-1.199 1.91545,-1.77258 2.81471,-1.28114c0.89926,0.49145 1.09704,1.86183 0.44178,3.06083z" fill="#ff7a7a" stroke="none" stroke-width="0"/></g><g><path d="M134.50247,149c0,-8.42098 6.82655,-15.24753 15.24753,-15.24753c8.42098,0 15.24753,6.82655 15.24753,15.24753c0,8.42098 -6.82655,15.24753 -15.24753,15.24753c-8.42098,0 -15.24753,-6.82655 -15.24753,-15.24753z" fill="#f54545" stroke="#ff7676" stroke-width="4"/><path d="M149.28671,148.29785c-2.11059,3.86194 -6.16963,5.70946 -9.06611,4.12652c-2.89647,-1.58295 -3.53354,-5.99693 -1.42294,-9.85888c2.11059,-3.86194 6.16963,-5.70944 9.06611,-4.12649c2.89647,1.58295 3.53354,5.9969 1.42294,9.85886z" fill="#ff534f" stroke="none" stroke-width="0"/><path d="M145.54448,145.25685c-1.10933,2.02983 -3.24274,3.00087 -4.76511,2.16888c-1.52238,-0.83199 -1.85721,-3.15196 -0.74788,-5.18178c1.10933,-2.02983 3.24273,-3.00087 4.7651,-2.16888c1.52238,0.83199 1.85721,3.15196 0.74788,5.18178z" fill="#ff7a7a" stroke="none" stroke-width="0"/><path d="M144.46595,148.369c-0.65527,1.199 -1.91545,1.77258 -2.81471,1.28114c-0.89926,-0.49145 -1.09704,-1.86183 -0.44177,-3.06083c0.65526,-1.199 1.91545,-1.77258 2.81471,-1.28114c0.89926,0.49145 1.09704,1.86183 0.44177,3.06083z" fill="#ff7a7a" stroke="none" stroke-width="0"/></g><g><path d="M216.66914,177.16667c0,-16.98139 13.76613,-30.74753 30.74753,-30.74753c16.98139,0 30.74753,13.76613 30.74753,30.74753c0,16.98139 -13.76613,30.74753 -30.74753,30.74753c-16.98139,0 -30.74753,-13.76613 -30.74753,-30.74753z" fill="#7845f4" stroke="#3b4df7" stroke-width="5.5"/><path d="M246.41683,175.65136c-4.55486,8.33445 -13.31465,12.32154 -19.56553,8.90541c-6.25086,-3.41616 -7.62571,-12.94194 -3.07085,-21.27639c4.55486,-8.33445 13.31465,-12.32152 19.56553,-8.90536c6.25086,3.41616 7.62571,12.94189 3.07085,21.27638z" fill="#824fff" stroke="none" stroke-width="0"/><path d="M238.34075,169.08858c-2.39403,4.38057 -6.99813,6.47615 -10.28355,4.68063c-3.28544,-1.79551 -4.00803,-6.80223 -1.614,-11.18279c2.39403,-4.38057 6.99814,-6.47615 10.28355,-4.68063c3.28544,1.79551 4.00803,6.80223 1.614,11.18279z" fill="#9a7aff" stroke="none" stroke-width="0"/><path d="M236.01317,175.8049c-1.41413,2.58756 -4.13372,3.8254 -6.07439,2.76481c-1.94067,-1.06059 -2.36753,-4.018 -0.9534,-6.60556c1.41413,-2.58756 4.13373,-3.8254 6.07441,-2.76481c1.94067,1.06059 2.36753,4.01801 0.9534,6.60557z" fill="#9a7aff" stroke="none" stroke-width="0"/></g><g><path d="M146.00247,178.5c0,-16.98139 13.76613,-30.74753 30.74753,-30.74753c16.98139,0 30.74753,13.76613 30.74753,30.74753c0,16.98139 -13.76613,30.74753 -30.74753,30.74753c-16.98139,0 -30.74753,-13.76613 -30.74753,-30.74753z" fill="#7845f4" stroke="#3b4df7" stroke-width="5.5"/><path d="M175.75016,176.98469c-4.55486,8.33445 -13.31465,12.32154 -19.56553,8.90541c-6.25086,-3.41616 -7.62571,-12.94194 -3.07085,-21.27639c4.55486,-8.33445 13.31465,-12.32152 19.56553,-8.90536c6.25086,3.41616 7.62571,12.9419 3.07085,21.27638z" fill="#824fff" stroke="none" stroke-width="0"/><path d="M167.67408,170.42191c-2.39403,4.38057 -6.99813,6.47615 -10.28355,4.68063c-3.28544,-1.79551 -4.00803,-6.80223 -1.614,-11.18279c2.39403,-4.38057 6.99813,-6.47614 10.28355,-4.68063c3.28544,1.79551 4.00803,6.80222 1.614,11.18278z" fill="#9a7aff" stroke="none" stroke-width="0"/><path d="M165.3465,177.13823c-1.41413,2.58756 -4.13372,3.8254 -6.0744,2.76481c-1.94067,-1.06059 -2.36753,-4.018 -0.9534,-6.60556c1.41413,-2.58756 4.13373,-3.8254 6.07441,-2.76481c1.94067,1.06059 2.36753,4.01801 0.9534,6.60557z" fill="#9a7aff" stroke="none" stroke-width="0"/></g><g><path d="M181.00247,160.5c0,-16.98139 13.76613,-30.74753 30.74753,-30.74753c16.98139,0 30.74753,13.76613 30.74753,30.74753c0,16.98139 -13.76613,30.74753 -30.74753,30.74753c-16.98139,0 -30.74753,-13.76613 -30.74753,-30.74753z" fill="#7845f4" stroke="#3b4df7" stroke-width="5.5"/><path d="M210.75016,158.9847c-4.55486,8.33445 -13.31465,12.32154 -19.56553,8.90541c-6.25086,-3.41616 -7.62571,-12.94194 -3.07085,-21.27639c4.55486,-8.33445 13.31465,-12.32151 19.56553,-8.90536c6.25086,3.41616 7.62571,12.94189 3.07085,21.27637z" fill="#824fff" stroke="none" stroke-width="0"/><path d="M202.67408,152.42192c-2.39403,4.38057 -6.99813,6.47615 -10.28355,4.68063c-3.28544,-1.79551 -4.00803,-6.80223 -1.614,-11.18279c2.39403,-4.38057 6.99813,-6.47615 10.28355,-4.68063c3.28544,1.79551 4.00803,6.80223 1.614,11.18279z" fill="#9a7aff" stroke="none" stroke-width="0"/><path d="M200.3465,159.13823c-1.41413,2.58756 -4.13372,3.8254 -6.0744,2.76481c-1.94067,-1.06059 -2.36752,-4.018 -0.9534,-6.60556c1.41413,-2.58756 4.13373,-3.8254 6.0744,-2.76481c1.94067,1.06059 2.36752,4.018 0.9534,6.60557z" fill="#9a7aff" stroke="none" stroke-width="0"/></g><g><path d="M244.66914,199.5c0,-16.98139 13.76613,-30.74753 30.74753,-30.74753c16.98139,0 30.74753,13.76613 30.74753,30.74753c0,16.98139 -13.76613,30.74753 -30.74753,30.74753c-16.98139,0 -30.74753,-13.76613 -30.74753,-30.74753z" fill="#7845f4" stroke="#3b4df7" stroke-width="5.5"/><path d="M274.41683,197.9847c-4.55486,8.33445 -13.31465,12.32154 -19.56553,8.90541c-6.25086,-3.41616 -7.62571,-12.94194 -3.07085,-21.27639c4.55486,-8.33445 13.31465,-12.32152 19.56553,-8.90536c6.25086,3.41616 7.62571,12.94189 3.07085,21.27638z" fill="#824fff" stroke="none" stroke-width="0"/><path d="M266.34075,191.42192c-2.39403,4.38057 -6.99813,6.47615 -10.28355,4.68063c-3.28544,-1.79551 -4.00803,-6.80223 -1.614,-11.18279c2.39403,-4.38057 6.99814,-6.47615 10.28355,-4.68063c3.28544,1.79551 4.00803,6.80223 1.614,11.18279z" fill="#9a7aff" stroke="none" stroke-width="0"/><path d="M264.01317,198.13823c-1.41413,2.58756 -4.13372,3.8254 -6.07439,2.76481c-1.94067,-1.06059 -2.36753,-4.018 -0.9534,-6.60556c1.41413,-2.58756 4.13373,-3.8254 6.0744,-2.76481c1.94068,1.06059 2.36753,4.01801 0.9534,6.60557z" fill="#9a7aff" stroke="none" stroke-width="0"/></g><g><path d="M276.3358,171.83333c0,-16.98139 13.76613,-30.74753 30.74753,-30.74753c16.98139,0 30.74753,13.76613 30.74753,30.74753c0,16.98139 -13.76613,30.74753 -30.74753,30.74753c-16.98139,0 -30.74753,-13.76613 -30.74753,-30.74753z" fill="#7845f4" stroke="#3b4df7" stroke-width="5.5"/><path d="M306.08349,170.31803c-4.55486,8.33445 -13.31465,12.32154 -19.56553,8.90541c-6.25086,-3.41616 -7.62571,-12.94194 -3.07085,-21.27639c4.55486,-8.33445 13.31465,-12.32152 19.56553,-8.90536c6.25086,3.41616 7.62571,12.94189 3.07085,21.27638z" fill="#824fff" stroke="none" stroke-width="0"/><path d="M298.00742,163.75525c-2.39403,4.38057 -6.99813,6.47615 -10.28355,4.68063c-3.28544,-1.79551 -4.00803,-6.80223 -1.614,-11.18279c2.39403,-4.38057 6.99813,-6.47615 10.28355,-4.68063c3.28544,1.79551 4.00803,6.80223 1.614,11.18279z" fill="#9a7aff" stroke="none" stroke-width="0"/><path d="M295.67983,170.47156c-1.41413,2.58756 -4.13372,3.8254 -6.0744,2.76481c-1.94067,-1.06059 -2.36753,-4.018 -0.9534,-6.60556c1.41413,-2.58756 4.13373,-3.8254 6.07441,-2.76481c1.94067,1.06059 2.36753,4.01801 0.9534,6.60557z" fill="#9a7aff" stroke="none" stroke-width="0"/></g><g><path d="M127.3358,203.83333c0,-16.98139 13.76613,-30.74753 30.74753,-30.74753c16.98139,0 30.74753,13.76613 30.74753,30.74753c0,16.98139 -13.76613,30.74753 -30.74753,30.74753c-16.98139,0 -30.74753,-13.76613 -30.74753,-30.74753z" fill="#7845f4" stroke="#3b4df7" stroke-width="5.5"/><path d="M157.08349,202.31803c-4.55486,8.33445 -13.31465,12.32154 -19.56553,8.90541c-6.25086,-3.41616 -7.62571,-12.94194 -3.07085,-21.27639c4.55486,-8.33445 13.31465,-12.32152 19.56553,-8.90536c6.25086,3.41616 7.62571,12.9419 3.07085,21.27638z" fill="#824fff" stroke="none" stroke-width="0"/><path d="M149.00741,195.75525c-2.39403,4.38057 -6.99813,6.47615 -10.28355,4.68064c-3.28544,-1.79551 -4.00803,-6.80223 -1.614,-11.18279c2.39403,-4.38057 6.99813,-6.47615 10.28355,-4.68063c3.28544,1.79551 4.00803,6.80222 1.614,11.18278z" fill="#9a7aff" stroke="none" stroke-width="0"/><path d="M146.67983,202.47156c-1.41413,2.58756 -4.13372,3.8254 -6.07439,2.76481c-1.94067,-1.06059 -2.36753,-4.018 -0.9534,-6.60556c1.41413,-2.58756 4.13373,-3.8254 6.07441,-2.76481c1.94067,1.06059 2.36753,4.01801 0.9534,6.60557z" fill="#9a7aff" stroke="none" stroke-width="0"/></g><g><path d="M124.50247,231.5c0,-8.42098 6.82655,-15.24753 15.24753,-15.24753c8.42098,0 15.24753,6.82655 15.24753,15.24753c0,8.42098 -6.82655,15.24753 -15.24753,15.24753c-8.42098,0 -15.24753,-6.82655 -15.24753,-15.24753z" fill="#f54545" stroke="#ff7676" stroke-width="4"/><path d="M139.2867,230.79785c-2.11059,3.86195 -6.16963,5.70945 -9.06611,4.12651c-2.89647,-1.58295 -3.53354,-5.99693 -1.42295,-9.85888c2.11059,-3.86195 6.16963,-5.70944 9.06611,-4.12649c2.89647,1.58295 3.53354,5.99691 1.42294,9.85887z" fill="#ff534f" stroke="none" stroke-width="0"/><path d="M135.54448,227.75685c-1.10932,2.02983 -3.24274,3.00086 -4.7651,2.16887c-1.52238,-0.83199 -1.85721,-3.15196 -0.74788,-5.18178c1.10932,-2.02983 3.24274,-3.00086 4.7651,-2.16887c1.52238,0.83199 1.85721,3.15196 0.74788,5.18178z" fill="#ff7a7a" stroke="none" stroke-width="0"/><path d="M134.46594,230.86899c-0.65527,1.199 -1.91545,1.77258 -2.8147,1.28114c-0.89925,-0.49145 -1.09704,-1.86183 -0.44178,-3.06083c0.65527,-1.199 1.91545,-1.77258 2.81471,-1.28114c0.89925,0.49145 1.09704,1.86183 0.44178,3.06083z" fill="#ff7a7a" stroke="none" stroke-width="0"/></g><g><path d="M195.00247,125.5c0,-8.42098 6.82655,-15.24753 15.24753,-15.24753c8.42098,0 15.24753,6.82655 15.24753,15.24753c0,8.42098 -6.82655,15.24753 -15.24753,15.24753c-8.42098,0 -15.24753,-6.82655 -15.24753,-15.24753z" fill="#f54545" stroke="#ff7676" stroke-width="4"/><path d="M209.78671,124.79785c-2.11059,3.86194 -6.16963,5.70945 -9.06611,4.12651c-2.89647,-1.58295 -3.53354,-5.99693 -1.42294,-9.85887c2.11059,-3.86194 6.16963,-5.70944 9.06611,-4.12649c2.89647,1.58295 3.53354,5.9969 1.42294,9.85886z" fill="#ff534f" stroke="none" stroke-width="0"/><path d="M206.04448,121.75684c-1.10933,2.02983 -3.24274,3.00087 -4.76511,2.16888c-1.52238,-0.83199 -1.85721,-3.15196 -0.74788,-5.18178c1.10933,-2.02983 3.24273,-3.00087 4.7651,-2.16888c1.52238,0.83199 1.85721,3.15196 0.74788,5.18178z" fill="#ff7a7a" stroke="none" stroke-width="0"/><path d="M204.96595,124.86899c-0.65527,1.199 -1.91545,1.77258 -2.81471,1.28114c-0.89926,-0.49145 -1.09704,-1.86183 -0.44177,-3.06083c0.65526,-1.199 1.91545,-1.77258 2.81471,-1.28114c0.89926,0.49145 1.09704,1.86183 0.44177,3.06083z" fill="#ff7a7a" stroke="none" stroke-width="0"/></g><g><path d="M325.00247,168c0,-8.42098 6.82655,-15.24753 15.24753,-15.24753c8.42098,0 15.24753,6.82655 15.24753,15.24753c0,8.42098 -6.82655,15.24753 -15.24753,15.24753c-8.42098,0 -15.24753,-6.82655 -15.24753,-15.24753z" fill="#f54545" stroke="#ff7676" stroke-width="4"/><path d="M339.78671,167.29785c-2.11059,3.86195 -6.16964,5.70945 -9.06612,4.12651c-2.89647,-1.58295 -3.53354,-5.99693 -1.42295,-9.85887c2.11059,-3.86194 6.16963,-5.70944 9.06611,-4.12649c2.89647,1.58295 3.53354,5.9969 1.42294,9.85887z" fill="#ff534f" stroke="none" stroke-width="0"/><path d="M336.04448,164.25684c-1.10933,2.02983 -3.24273,3.00087 -4.76511,2.16887c-1.52238,-0.83199 -1.85721,-3.15196 -0.74788,-5.18178c1.10933,-2.02983 3.24273,-3.00087 4.7651,-2.16888c1.52238,0.83199 1.85721,3.15196 0.74788,5.18178z" fill="#ff7a7a" stroke="none" stroke-width="0"/><path d="M334.96595,167.36899c-0.65526,1.199 -1.91545,1.77258 -2.81471,1.28114c-0.89925,-0.49145 -1.09704,-1.86183 -0.44178,-3.06083c0.65526,-1.199 1.91545,-1.77258 2.81471,-1.28114c0.89925,0.49145 1.09704,1.86183 0.44178,3.06083z" fill="#ff7a7a" stroke="none" stroke-width="0"/></g><g><path d="M202.3358,173.91667c0,-5.79763 4.6999,-10.49753 10.49753,-10.49753c5.79763,0 10.49753,4.6999 10.49753,10.49753c0,5.79763 -4.6999,10.49753 -10.49753,10.49753c-5.79763,0 -10.49753,-4.6999 -10.49753,-10.49753z" fill="#94f545" stroke="#37ff0f" stroke-width="4"/><path d="M212.68649,173.26114c-1.45309,2.65885 -4.24763,3.93081 -6.24179,2.841c-1.99414,-1.08982 -2.43275,-4.12873 -0.97966,-6.78758c1.45309,-2.65885 4.24763,-3.9308 6.24178,-2.84098c1.99414,1.08982 2.43275,4.12871 0.97966,6.78757z" fill="#9cff4f" stroke="none" stroke-width="0"/><path d="M210.11006,171.16748c-0.76374,1.39749 -2.23254,2.06602 -3.28065,1.49321c-1.04812,-0.5728 -1.27864,-2.17004 -0.5149,-3.56752c0.76374,-1.39749 2.23254,-2.06602 3.28065,-1.49321c1.04812,0.5728 1.27864,2.17004 0.5149,3.56752z" fill="#b6ff7a" stroke="none" stroke-width="0"/><path d="M209.36752,173.31012c-0.45113,0.82548 -1.31874,1.22038 -1.93785,0.88203c-0.61911,-0.33835 -0.75528,-1.28182 -0.30415,-2.1073c0.45113,-0.82548 1.31874,-1.22038 1.93785,-0.88203c0.61911,0.33835 0.75528,1.28183 0.30415,2.10731z" fill="#b6ff7a" stroke="none" stroke-width="0"/></g><g><path d="M162.00247,222.25c0,-5.79763 4.6999,-10.49753 10.49753,-10.49753c5.79763,0 10.49753,4.69991 10.49753,10.49753c0,5.79763 -4.69991,10.49753 -10.49753,10.49753c-5.79763,0 -10.49753,-4.6999 -10.49753,-10.49753z" fill="#94f545" stroke="#37ff0f" stroke-width="4"/><path d="M172.35315,221.59447c-1.45309,2.65885 -4.24764,3.93081 -6.24178,2.841c-1.99415,-1.08982 -2.43274,-4.12873 -0.97966,-6.78758c1.45309,-2.65885 4.24763,-3.9308 6.24178,-2.84098c1.99415,1.08982 2.43275,4.12871 0.97966,6.78757z" fill="#9cff4f" stroke="none" stroke-width="0"/><path d="M169.77673,219.50082c-0.76374,1.39748 -2.23254,2.06601 -3.28065,1.49321c-1.04812,-0.5728 -1.27864,-2.17004 -0.5149,-3.56752c0.76374,-1.39748 2.23254,-2.06601 3.28065,-1.49321c1.04812,0.5728 1.27864,2.17004 0.5149,3.56752z" fill="#b6ff7a" stroke="none" stroke-width="0"/><path d="M169.03418,221.64345c-0.45113,0.82548 -1.31874,1.22037 -1.93785,0.88202c-0.61911,-0.33835 -0.75528,-1.28182 -0.30415,-2.1073c0.45113,-0.82548 1.31874,-1.22038 1.93785,-0.88203c0.61911,0.33835 0.75529,1.28182 0.30415,2.1073z" fill="#b6ff7a" stroke="none" stroke-width="0"/></g><g><path d="M259.16914,208.75c0,-5.79762 4.69991,-10.49753 10.49753,-10.49753c5.79762,0 10.49753,4.69991 10.49753,10.49753c0,5.79762 -4.69991,10.49753 -10.49753,10.49753c-5.79762,0 -10.49753,-4.69991 -10.49753,-10.49753z" fill="#94f545" stroke="#37ff0f" stroke-width="4"/><path d="M269.51982,208.09447c-1.45309,2.65885 -4.24764,3.93081 -6.24178,2.841c-1.99415,-1.08982 -2.43274,-4.12873 -0.97966,-6.78758c1.45309,-2.65885 4.24763,-3.9308 6.24178,-2.84098c1.99415,1.08982 2.43275,4.12871 0.97966,6.78757z" fill="#9cff4f" stroke="none" stroke-width="0"/><path d="M266.94339,206.00082c-0.76374,1.39749 -2.23254,2.06601 -3.28065,1.49321c-1.04812,-0.57281 -1.27863,-2.17005 -0.51489,-3.56752c0.76374,-1.39749 2.23253,-2.06602 3.28064,-1.49321c1.04812,0.57281 1.27864,2.17005 0.5149,3.56753z" fill="#b6ff7a" stroke="none" stroke-width="0"/><path d="M266.20085,208.14346c-0.45114,0.82548 -1.31874,1.22037 -1.93785,0.88202c-0.61912,-0.33835 -0.75529,-1.28182 -0.30415,-2.1073c0.45114,-0.82548 1.31874,-1.22038 1.93785,-0.88203c0.61912,0.33835 0.75529,1.28182 0.30415,2.1073z" fill="#b6ff7a" stroke="none" stroke-width="0"/></g><g><path d="M331.16914,151.75c0,-5.79763 4.69991,-10.49753 10.49753,-10.49753c5.79762,0 10.49753,4.6999 10.49753,10.49753c0,5.79763 -4.69991,10.49753 -10.49753,10.49753c-5.79762,0 -10.49753,-4.69991 -10.49753,-10.49753z" fill="#94f545" stroke="#37ff0f" stroke-width="4"/><path d="M341.51982,151.09447c-1.45309,2.65885 -4.24764,3.93081 -6.24178,2.841c-1.99415,-1.08982 -2.43274,-4.12873 -0.97966,-6.78758c1.45309,-2.65885 4.24763,-3.9308 6.24178,-2.84098c1.99415,1.08982 2.43275,4.12871 0.97966,6.78757z" fill="#9cff4f" stroke="none" stroke-width="0"/><path d="M338.94339,149.00082c-0.76374,1.39748 -2.23254,2.06601 -3.28065,1.49321c-1.04812,-0.5728 -1.27863,-2.17004 -0.51489,-3.56752c0.76374,-1.39748 2.23253,-2.06601 3.28064,-1.49321c1.04812,0.5728 1.27864,2.17004 0.5149,3.56752z" fill="#b6ff7a" stroke="none" stroke-width="0"/><path d="M338.20085,151.14346c-0.45114,0.82548 -1.31874,1.22037 -1.93785,0.88202c-0.61912,-0.33835 -0.75529,-1.28182 -0.30415,-2.1073c0.45114,-0.82548 1.31874,-1.22038 1.93785,-0.88203c0.61912,0.33835 0.75529,1.28182 0.30415,2.1073z" fill="#b6ff7a" stroke="none" stroke-width="0"/></g><g><path d="M208.16914,114.75c0,-5.79763 4.69991,-10.49753 10.49753,-10.49753c5.79762,0 10.49753,4.6999 10.49753,10.49753c0,5.79762 -4.69991,10.49753 -10.49753,10.49753c-5.79762,0 -10.49753,-4.69991 -10.49753,-10.49753z" fill="#94f545" stroke="#37ff0f" stroke-width="4"/><path d="M218.51982,114.09447c-1.45309,2.65885 -4.24764,3.93081 -6.24178,2.841c-1.99415,-1.08982 -2.43274,-4.12873 -0.97966,-6.78758c1.45309,-2.65885 4.24763,-3.9308 6.24178,-2.84098c1.99415,1.08982 2.43275,4.12871 0.97966,6.78757z" fill="#9cff4f" stroke="none" stroke-width="0"/><path d="M215.94339,112.00082c-0.76374,1.39749 -2.23254,2.06601 -3.28065,1.49321c-1.04812,-0.57281 -1.27863,-2.17005 -0.51489,-3.56752c0.76374,-1.39749 2.23253,-2.06601 3.28064,-1.49321c1.04812,0.57281 1.27864,2.17005 0.5149,3.56752z" fill="#b6ff7a" stroke="none" stroke-width="0"/><path d="M215.20085,114.14346c-0.45114,0.82548 -1.31874,1.22037 -1.93785,0.88202c-0.61912,-0.33835 -0.75529,-1.28182 -0.30415,-2.1073c0.45114,-0.82548 1.31874,-1.22038 1.93785,-0.88203c0.61912,0.33835 0.75529,1.28182 0.30415,2.1073z" fill="#b6ff7a" stroke="none" stroke-width="0"/></g></g></g></g></svg>