<svg version="1.1" xmlns="http://www.w3.org/2000/svg" xmlns:xlink="http://www.w3.org/1999/xlink" width="72.99506" height="45.99506" viewBox="0,0,72.99506,45.99506"><g transform="translate(-203.50247,-157.00247)"><g data-paper-data="{&quot;isPaintingLayer&quot;:true}" fill-rule="nonzero" stroke-linecap="butt" stroke-linejoin="miter" stroke-miterlimit="10" stroke-dasharray="" stroke-dashoffset="0" style="mix-blend-mode: normal"><g><g><path d="M205.50247,180c0,-11.59662 9.40091,-20.99753 20.99753,-20.99753c11.59662,0 20.99753,9.40091 20.99753,20.99753c0,11.59662 -9.40091,20.99753 -20.99753,20.99753c-11.59662,0 -20.99753,-9.40091 -20.99753,-20.99753z" fill="#f54545" stroke="#ff7676" stroke-width="4"/><path d="M225.862,179.03306c-2.90652,5.31832 -8.49626,7.86256 -12.48503,5.68267c-3.98876,-2.1799 -4.86607,-8.25843 -1.95956,-13.57676c2.90652,-5.31832 8.49626,-7.86253 12.48503,-5.68263c3.98876,2.1799 4.86607,8.25839 1.95955,13.57674z" fill="#ff534f" stroke="none" stroke-width="0"/><path d="M220.70854,174.84527c-1.52767,2.7953 -4.46561,4.13253 -6.56208,2.98679c-2.09649,-1.14574 -2.55758,-4.3406 -1.02991,-7.13588c1.52767,-2.7953 4.4656,-4.13253 6.56207,-2.98679c2.09649,1.14574 2.55758,4.3406 1.02991,7.13588z" fill="#ff7a7a" stroke="none" stroke-width="0"/><path d="M219.22328,179.13104c-0.90238,1.65116 -2.63779,2.44104 -3.87617,1.76427c-1.23838,-0.67678 -1.51075,-2.56395 -0.60838,-4.2151c0.90237,-1.65116 2.63779,-2.44104 3.87617,-1.76427c1.23838,0.67678 1.51075,2.56395 0.60838,4.2151z" fill="#ff7a7a" stroke="none" stroke-width="0"/></g><g><path d="M232.50247,180c0,-11.59662 9.40091,-20.99753 20.99753,-20.99753c11.59662,0 20.99753,9.40091 20.99753,20.99753c0,11.59662 -9.40091,20.99753 -20.99753,20.99753c-11.59662,0 -20.99753,-9.40091 -20.99753,-20.99753z" fill="#f54545" stroke="#ff7676" stroke-width="4"/><path d="M252.862,179.03306c-2.90652,5.31832 -8.49626,7.86256 -12.48503,5.68267c-3.98876,-2.1799 -4.86607,-8.25843 -1.95956,-13.57676c2.90652,-5.31832 8.49626,-7.86253 12.48503,-5.68263c3.98876,2.1799 4.86607,8.25839 1.95955,13.57674z" fill="#ff534f" stroke="none" stroke-width="0"/><path d="M247.70854,174.84527c-1.52767,2.7953 -4.46561,4.13253 -6.56208,2.98679c-2.09649,-1.14574 -2.55758,-4.3406 -1.02991,-7.13588c1.52767,-2.7953 4.4656,-4.13253 6.56207,-2.98679c2.09649,1.14574 2.55758,4.3406 1.02991,7.13588z" fill="#ff7a7a" stroke="none" stroke-width="0"/><path d="M246.22328,179.13104c-0.90238,1.65116 -2.63779,2.44104 -3.87617,1.76427c-1.23838,-0.67678 -1.51075,-2.56395 -0.60838,-4.2151c0.90237,-1.65116 2.63779,-2.44104 3.87617,-1.76427c1.23838,0.67678 1.51075,2.56395 0.60838,4.2151z" fill="#ff7a7a" stroke="none" stroke-width="0"/></g></g></g></g></svg>