<svg version="1.1" xmlns="http://www.w3.org/2000/svg" xmlns:xlink="http://www.w3.org/1999/xlink" width="131.60894" height="82.65965" viewBox="0,0,131.60894,82.65965"><defs><radialGradient cx="240" cy="180" r="42.97114" gradientUnits="userSpaceOnUse" id="color-1"><stop offset="0" stop-color="#d71b1b"/><stop offset="1" stop-color="#fc3d3d"/></radialGradient><radialGradient cx="225.92503" cy="203.51542" r="28.78593" gradientUnits="userSpaceOnUse" id="color-2"><stop offset="0" stop-color="#ff5555"/><stop offset="1" stop-color="#f94f4f"/></radialGradient></defs><g transform="translate(-174.19553,-138.67018)"><g data-paper-data="{&quot;isPaintingLayer&quot;:true}" fill-rule="nonzero" stroke="none" stroke-width="0" stroke-linecap="butt" stroke-linejoin="miter" stroke-miterlimit="10" stroke-dasharray="" stroke-dashoffset="0" style="mix-blend-mode: normal"><path d="M305.80447,180c0,22.82584 -29.46165,41.32982 -65.80447,41.32982c-36.34282,0 -65.80447,-18.50399 -65.80447,-41.32982c0,-22.82584 29.46165,-41.32982 65.80447,-41.32982c36.34282,0 65.80447,18.50399 65.80447,41.32982z" fill="#ff7474"/><path d="M301.6378,180c0,21.38053 -27.59617,38.71287 -61.6378,38.71287c-34.04163,0 -61.6378,-17.33233 -61.6378,-38.71287c0,-21.38053 27.59617,-38.71287 61.6378,-38.71287c34.04163,0 61.6378,17.33233 61.6378,38.71287z" fill="#fc3d3d"/><path d="M282.97114,180c0,18.35734 -19.23883,33.23889 -42.97114,33.23889c-23.73231,0 -42.97114,-14.88155 -42.97114,-33.23889c0,-18.35734 19.23883,-33.23889 42.97114,-33.23889c23.73231,0 42.97114,14.88155 42.97114,33.23889z" fill="url(#color-1)"/><path d="M301.6378,180c0,21.38053 -27.59617,38.71287 -61.6378,38.71287c-8.6101,0 -51.55261,-4.87424 -46.91487,-25.24239c4.63774,-20.36815 28.19061,14.35506 50.25848,10.55784c29.04629,-4.99799 58.29419,-33.10507 58.29419,-24.02832z" fill="#f94f4f"/><path d="M233.44359,214.686c-6.92342,0 -39.73942,-0.77655 -36.01019,-17.15467c3.72923,-16.37813 22.66821,11.54297 40.41309,8.48962c23.35627,-4.01891 22.97014,8.66506 -4.4029,8.66506z" fill="url(#color-2)"/></g></g></svg>